<?xml version="1.0" standalone="no"?>
 <!DOCTYPE svg PUBLIC "-//W3C//DTD SVG 1.1//EN" 
 "http://www.w3.org/Graphics/SVG/1.1/DTD/svg11.dtd"> 
<svg
  xmlns:svg="http://www.w3.org/2000/svg"
  xmlns="http://www.w3.org/2000/svg"
  xmlns:xlink="http://www.w3.org/1999/xlink"
  version="1.1"
  width="2.552700cm" height="2.766060cm" viewBox="0 0 10050 10890">
<title>SVG Picture created as DRV8825.svg date 2020/10/22 22:10:30 </title>
  <desc>Picture generated by Eeschema-SVG </desc>
<g style="fill:#000000; fill-opacity:1;stroke:#000000; stroke-opacity:1;
stroke-linecap:round; stroke-linejoin:round;"
 transform="translate(0 0) scale(1 1)">
</g>
<g style="fill:#840000; fill-opacity:0.0; 
stroke:#840000; stroke-width:-10; stroke-opacity:1; 
stroke-linecap:round; stroke-linejoin:round;">
</g>
<g style="fill:#FFFFC2; fill-opacity:0.0; 
stroke:#FFFFC2; stroke-width:-10; stroke-opacity:1; 
stroke-linecap:round; stroke-linejoin:round;">
</g>
<g style="fill:#FFFFC2; fill-opacity:0.6; 
stroke:#FFFFC2; stroke-width:0; stroke-opacity:1; 
stroke-linecap:round; stroke-linejoin:round;">
<rect x="2020" y="940" width="6000" height="9000" rx="0" />
</g>
<g style="fill:#840000; fill-opacity:0.6; 
stroke:#840000; stroke-width:0; stroke-opacity:1; 
stroke-linecap:round; stroke-linejoin:round;">
</g>
<g style="fill:#840000; fill-opacity:0.0; 
stroke:#840000; stroke-width:60; stroke-opacity:1; 
stroke-linecap:round; stroke-linejoin:round;">
<rect x="2020" y="940" width="6000" height="9000" rx="0" />
<rect x="2020" y="940" width="6000" height="9000" rx="0" />
<path d="M2020 1940
L1020 1940
" />
</g>
<g style="fill:#008484; fill-opacity:0.0; 
stroke:#008484; stroke-width:60; stroke-opacity:1; 
stroke-linecap:round; stroke-linejoin:round;">
<text x="2420" y="2190"
textLength="1580" font-size="660" lengthAdjust="spacingAndGlyphs"
text-anchor="start" opacity="0">GND</text>
<path d="M2830 1690
L2780 1660
L2710 1660
L2640 1690
L2590 1730
L2560 1780
L2540 1880
L2540 1950
L2560 2040
L2590 2090
L2640 2140
L2710 2160
L2750 2160
L2830 2140
L2850 2110
L2850 1950
L2750 1950
" />
<path d="M3060 2160
L3060 1660
L3350 2160
L3350 1660
" />
<path d="M3590 2160
L3590 1660
L3710 1660
L3780 1690
L3830 1730
L3850 1780
L3870 1880
L3870 1950
L3850 2040
L3830 2090
L3780 2140
L3710 2160
L3590 2160
" />
</g>
<g style="fill:#840000; fill-opacity:0.0; 
stroke:#840000; stroke-width:60; stroke-opacity:1; 
stroke-linecap:round; stroke-linejoin:round;">
<text x="1520" y="1840"
textLength="540" font-size="660" lengthAdjust="spacingAndGlyphs"
text-anchor="middle" opacity="0">1</text>
<path d="M1660 1810
L1370 1810
" />
<path d="M1520 1810
L1520 1310
L1470 1380
L1420 1430
L1370 1450
" />
<path d="M8020 7940
L9020 7940
" />
</g>
<g style="fill:#008484; fill-opacity:0.0; 
stroke:#008484; stroke-width:60; stroke-opacity:1; 
stroke-linecap:round; stroke-linejoin:round;">
<text x="7620" y="8190"
textLength="1110" font-size="660" lengthAdjust="spacingAndGlyphs"
text-anchor="end" opacity="0">M0</text>
<path d="M6660 8160
L6660 7660
L6820 8020
L6990 7660
L6990 8160
" />
<path d="M7320 7660
L7370 7660
L7420 7690
L7440 7710
L7470 7760
L7490 7850
L7490 7970
L7470 8070
L7440 8110
L7420 8140
L7370 8160
L7320 8160
L7280 8140
L7250 8110
L7230 8070
L7200 7970
L7200 7850
L7230 7760
L7250 7710
L7280 7690
L7320 7660
" />
</g>
<g style="fill:#840000; fill-opacity:0.0; 
stroke:#840000; stroke-width:60; stroke-opacity:1; 
stroke-linecap:round; stroke-linejoin:round;">
<text x="8520" y="7840"
textLength="1010" font-size="660" lengthAdjust="spacingAndGlyphs"
text-anchor="middle" opacity="0">10</text>
<path d="M8420 7810
L8130 7810
" />
<path d="M8280 7810
L8280 7310
L8230 7380
L8180 7430
L8130 7450
" />
<path d="M8730 7310
L8780 7310
L8820 7340
L8850 7360
L8870 7410
L8900 7500
L8900 7620
L8870 7720
L8850 7760
L8820 7790
L8780 7810
L8730 7810
L8680 7790
L8660 7760
L8630 7720
L8610 7620
L8610 7500
L8630 7410
L8660 7360
L8680 7340
L8730 7310
" />
<path d="M8020 6940
L9020 6940
" />
</g>
<g style="fill:#008484; fill-opacity:0.0; 
stroke:#008484; stroke-width:60; stroke-opacity:1; 
stroke-linecap:round; stroke-linejoin:round;">
<text x="7620" y="7190"
textLength="1110" font-size="660" lengthAdjust="spacingAndGlyphs"
text-anchor="end" opacity="0">M1</text>
<path d="M6660 7160
L6660 6660
L6820 7020
L6990 6660
L6990 7160
" />
<path d="M7490 7160
L7200 7160
" />
<path d="M7350 7160
L7350 6660
L7300 6730
L7250 6780
L7200 6800
" />
</g>
<g style="fill:#840000; fill-opacity:0.0; 
stroke:#840000; stroke-width:60; stroke-opacity:1; 
stroke-linecap:round; stroke-linejoin:round;">
<text x="8520" y="6840"
textLength="1010" font-size="660" lengthAdjust="spacingAndGlyphs"
text-anchor="middle" opacity="0">11</text>
<path d="M8420 6810
L8130 6810
" />
<path d="M8280 6810
L8280 6310
L8230 6380
L8180 6430
L8130 6450
" />
<path d="M8900 6810
L8610 6810
" />
<path d="M8750 6810
L8750 6310
L8710 6380
L8660 6430
L8610 6450
" />
<path d="M8020 5940
L9020 5940
" />
</g>
<g style="fill:#008484; fill-opacity:0.0; 
stroke:#008484; stroke-width:60; stroke-opacity:1; 
stroke-linecap:round; stroke-linejoin:round;">
<text x="7620" y="6190"
textLength="1110" font-size="660" lengthAdjust="spacingAndGlyphs"
text-anchor="end" opacity="0">M2</text>
<path d="M6660 6160
L6660 5660
L6820 6020
L6990 5660
L6990 6160
" />
<path d="M7200 5710
L7230 5690
L7280 5660
L7390 5660
L7440 5690
L7470 5710
L7490 5760
L7490 5800
L7470 5880
L7180 6160
L7490 6160
" />
</g>
<g style="fill:#840000; fill-opacity:0.0; 
stroke:#840000; stroke-width:60; stroke-opacity:1; 
stroke-linecap:round; stroke-linejoin:round;">
<text x="8520" y="5840"
textLength="1010" font-size="660" lengthAdjust="spacingAndGlyphs"
text-anchor="middle" opacity="0">12</text>
<path d="M8420 5810
L8130 5810
" />
<path d="M8280 5810
L8280 5310
L8230 5380
L8180 5430
L8130 5450
" />
<path d="M8610 5360
L8630 5340
L8680 5310
L8800 5310
L8850 5340
L8870 5360
L8900 5410
L8900 5450
L8870 5530
L8590 5810
L8900 5810
" />
<path d="M8020 4940
L9020 4940
" />
</g>
<g style="fill:#008484; fill-opacity:0.0; 
stroke:#008484; stroke-width:60; stroke-opacity:1; 
stroke-linecap:round; stroke-linejoin:round;">
<text x="7620" y="5190"
textLength="1420" font-size="660" lengthAdjust="spacingAndGlyphs"
text-anchor="end" opacity="0">RST</text>
<path d="M6630 5160
L6470 4920
" />
<path d="M6350 5160
L6350 4660
L6540 4660
L6590 4690
L6610 4710
L6630 4760
L6630 4830
L6610 4880
L6590 4900
L6540 4920
L6350 4920
" />
<path d="M6820 5140
L6890 5160
L7010 5160
L7060 5140
L7090 5110
L7110 5070
L7110 5020
L7090 4970
L7060 4950
L7010 4920
L6920 4900
L6870 4880
L6850 4850
L6820 4800
L6820 4760
L6850 4710
L6870 4690
L6920 4660
L7040 4660
L7110 4690
" />
<path d="M7250 4660
L7540 4660
" />
<path d="M7390 5160
L7390 4660
" />
</g>
<g style="fill:#840000; fill-opacity:0.0; 
stroke:#840000; stroke-width:60; stroke-opacity:1; 
stroke-linecap:round; stroke-linejoin:round;">
<text x="8520" y="4840"
textLength="1010" font-size="660" lengthAdjust="spacingAndGlyphs"
text-anchor="middle" opacity="0">13</text>
<path d="M8420 4810
L8130 4810
" />
<path d="M8280 4810
L8280 4310
L8230 4380
L8180 4430
L8130 4450
" />
<path d="M8590 4310
L8900 4310
L8730 4500
L8800 4500
L8850 4530
L8870 4550
L8900 4600
L8900 4720
L8870 4760
L8850 4790
L8800 4810
L8660 4810
L8610 4790
L8590 4760
" />
<path d="M8020 3940
L9020 3940
" />
</g>
<g style="fill:#008484; fill-opacity:0.0; 
stroke:#008484; stroke-width:60; stroke-opacity:1; 
stroke-linecap:round; stroke-linejoin:round;">
<text x="7620" y="4190"
textLength="1440" font-size="660" lengthAdjust="spacingAndGlyphs"
text-anchor="end" opacity="0">SLP</text>
<path d="M6300 4140
L6370 4160
L6490 4160
L6540 4140
L6560 4110
L6590 4070
L6590 4020
L6560 3970
L6540 3950
L6490 3920
L6390 3900
L6350 3880
L6320 3850
L6300 3800
L6300 3760
L6320 3710
L6350 3690
L6390 3660
L6510 3660
L6590 3690
" />
<path d="M7040 4160
L6800 4160
L6800 3660
" />
<path d="M7200 4160
L7200 3660
L7390 3660
L7440 3690
L7470 3710
L7490 3760
L7490 3830
L7470 3880
L7440 3900
L7390 3920
L7200 3920
" />
</g>
<g style="fill:#840000; fill-opacity:0.0; 
stroke:#840000; stroke-width:60; stroke-opacity:1; 
stroke-linecap:round; stroke-linejoin:round;">
<text x="8520" y="3840"
textLength="1010" font-size="660" lengthAdjust="spacingAndGlyphs"
text-anchor="middle" opacity="0">14</text>
<path d="M8420 3810
L8130 3810
" />
<path d="M8280 3810
L8280 3310
L8230 3380
L8180 3430
L8130 3450
" />
<path d="M8850 3480
L8850 3810
" />
<path d="M8730 3290
L8610 3640
L8920 3640
" />
<path d="M8020 2940
L9020 2940
" />
</g>
<g style="fill:#008484; fill-opacity:0.0; 
stroke:#008484; stroke-width:60; stroke-opacity:1; 
stroke-linecap:round; stroke-linejoin:round;">
<text x="7620" y="3190"
textLength="1420" font-size="660" lengthAdjust="spacingAndGlyphs"
text-anchor="end" opacity="0">STP</text>
<path d="M6320 3140
L6390 3160
L6510 3160
L6560 3140
L6590 3110
L6610 3070
L6610 3020
L6590 2970
L6560 2950
L6510 2920
L6420 2900
L6370 2880
L6350 2850
L6320 2800
L6320 2760
L6350 2710
L6370 2690
L6420 2660
L6540 2660
L6610 2690
" />
<path d="M6750 2660
L7040 2660
" />
<path d="M6890 3160
L6890 2660
" />
<path d="M7200 3160
L7200 2660
L7390 2660
L7440 2690
L7470 2710
L7490 2760
L7490 2830
L7470 2880
L7440 2900
L7390 2920
L7200 2920
" />
</g>
<g style="fill:#840000; fill-opacity:0.0; 
stroke:#840000; stroke-width:60; stroke-opacity:1; 
stroke-linecap:round; stroke-linejoin:round;">
<text x="8520" y="2840"
textLength="1010" font-size="660" lengthAdjust="spacingAndGlyphs"
text-anchor="middle" opacity="0">15</text>
<path d="M8420 2810
L8130 2810
" />
<path d="M8280 2810
L8280 2310
L8230 2380
L8180 2430
L8130 2450
" />
<path d="M8870 2310
L8630 2310
L8610 2550
L8630 2530
L8680 2500
L8800 2500
L8850 2530
L8870 2550
L8900 2600
L8900 2720
L8870 2760
L8850 2790
L8800 2810
L8680 2810
L8630 2790
L8610 2760
" />
<path d="M8020 1940
L9020 1940
" />
</g>
<g style="fill:#008484; fill-opacity:0.0; 
stroke:#008484; stroke-width:60; stroke-opacity:1; 
stroke-linecap:round; stroke-linejoin:round;">
<text x="7620" y="2190"
textLength="1300" font-size="660" lengthAdjust="spacingAndGlyphs"
text-anchor="end" opacity="0">DIR</text>
<path d="M6470 2160
L6470 1660
L6590 1660
L6660 1690
L6700 1730
L6730 1780
L6750 1880
L6750 1950
L6730 2040
L6700 2090
L6660 2140
L6590 2160
L6470 2160
" />
<path d="M6970 2160
L6970 1660
" />
<path d="M7490 2160
L7320 1920
" />
<path d="M7200 2160
L7200 1660
L7390 1660
L7440 1690
L7470 1710
L7490 1760
L7490 1830
L7470 1880
L7440 1900
L7390 1920
L7200 1920
" />
</g>
<g style="fill:#840000; fill-opacity:0.0; 
stroke:#840000; stroke-width:60; stroke-opacity:1; 
stroke-linecap:round; stroke-linejoin:round;">
<text x="8520" y="1840"
textLength="1010" font-size="660" lengthAdjust="spacingAndGlyphs"
text-anchor="middle" opacity="0">16</text>
<path d="M8420 1810
L8130 1810
" />
<path d="M8280 1810
L8280 1310
L8230 1380
L8180 1430
L8130 1450
" />
<path d="M8850 1310
L8750 1310
L8710 1340
L8680 1360
L8630 1430
L8610 1530
L8610 1720
L8630 1760
L8660 1790
L8710 1810
L8800 1810
L8850 1790
L8870 1760
L8900 1720
L8900 1600
L8870 1550
L8850 1530
L8800 1500
L8710 1500
L8660 1530
L8630 1550
L8610 1600
" />
<path d="M2020 2940
L1020 2940
" />
</g>
<g style="fill:#008484; fill-opacity:0.0; 
stroke:#008484; stroke-width:60; stroke-opacity:1; 
stroke-linecap:round; stroke-linejoin:round;">
<text x="2420" y="3190"
textLength="1270" font-size="660" lengthAdjust="spacingAndGlyphs"
text-anchor="start" opacity="0">FLT</text>
<path d="M2730 2900
L2560 2900
" />
<path d="M2560 3160
L2560 2660
L2800 2660
" />
<path d="M3230 3160
L2990 3160
L2990 2660
" />
<path d="M3330 2660
L3610 2660
" />
<path d="M3470 3160
L3470 2660
" />
</g>
<g style="fill:#840000; fill-opacity:0.0; 
stroke:#840000; stroke-width:60; stroke-opacity:1; 
stroke-linecap:round; stroke-linejoin:round;">
<text x="1520" y="2840"
textLength="540" font-size="660" lengthAdjust="spacingAndGlyphs"
text-anchor="middle" opacity="0">2</text>
<path d="M1370 2360
L1400 2340
L1440 2310
L1560 2310
L1610 2340
L1630 2360
L1660 2410
L1660 2450
L1630 2530
L1350 2810
L1660 2810
" />
<path d="M2020 3940
L1020 3940
" />
</g>
<g style="fill:#008484; fill-opacity:0.0; 
stroke:#008484; stroke-width:60; stroke-opacity:1; 
stroke-linecap:round; stroke-linejoin:round;">
<text x="2420" y="4190"
textLength="960" font-size="660" lengthAdjust="spacingAndGlyphs"
text-anchor="start" opacity="0">A2</text>
<path d="M2540 4020
L2780 4020
" />
<path d="M2490 4160
L2660 3660
L2830 4160
" />
<path d="M2970 3710
L2990 3690
L3040 3660
L3160 3660
L3210 3690
L3230 3710
L3250 3760
L3250 3800
L3230 3880
L2950 4160
L3250 4160
" />
</g>
<g style="fill:#840000; fill-opacity:0.0; 
stroke:#840000; stroke-width:60; stroke-opacity:1; 
stroke-linecap:round; stroke-linejoin:round;">
<text x="1520" y="3840"
textLength="540" font-size="660" lengthAdjust="spacingAndGlyphs"
text-anchor="middle" opacity="0">3</text>
<path d="M1350 3310
L1660 3310
L1490 3500
L1560 3500
L1610 3530
L1630 3550
L1660 3600
L1660 3720
L1630 3760
L1610 3790
L1560 3810
L1420 3810
L1370 3790
L1350 3760
" />
<path d="M2020 4940
L1020 4940
" />
</g>
<g style="fill:#008484; fill-opacity:0.0; 
stroke:#008484; stroke-width:60; stroke-opacity:1; 
stroke-linecap:round; stroke-linejoin:round;">
<text x="2420" y="5190"
textLength="960" font-size="660" lengthAdjust="spacingAndGlyphs"
text-anchor="start" opacity="0">A1</text>
<path d="M2540 5020
L2780 5020
" />
<path d="M2490 5160
L2660 4660
L2830 5160
" />
<path d="M3250 5160
L2970 5160
" />
<path d="M3110 5160
L3110 4660
L3060 4730
L3020 4780
L2970 4800
" />
</g>
<g style="fill:#840000; fill-opacity:0.0; 
stroke:#840000; stroke-width:60; stroke-opacity:1; 
stroke-linecap:round; stroke-linejoin:round;">
<text x="1520" y="4840"
textLength="540" font-size="660" lengthAdjust="spacingAndGlyphs"
text-anchor="middle" opacity="0">4</text>
<path d="M1610 4480
L1610 4810
" />
<path d="M1490 4290
L1370 4640
L1680 4640
" />
<path d="M2020 5940
L1020 5940
" />
</g>
<g style="fill:#008484; fill-opacity:0.0; 
stroke:#008484; stroke-width:60; stroke-opacity:1; 
stroke-linecap:round; stroke-linejoin:round;">
<text x="2420" y="6190"
textLength="1040" font-size="660" lengthAdjust="spacingAndGlyphs"
text-anchor="start" opacity="0">B1</text>
<path d="M2730 5900
L2800 5920
L2830 5950
L2850 5990
L2850 6070
L2830 6110
L2800 6140
L2750 6160
L2560 6160
L2560 5660
L2730 5660
L2780 5690
L2800 5710
L2830 5760
L2830 5800
L2800 5850
L2780 5880
L2730 5900
L2560 5900
" />
<path d="M3330 6160
L3040 6160
" />
<path d="M3180 6160
L3180 5660
L3140 5730
L3090 5780
L3040 5800
" />
</g>
<g style="fill:#840000; fill-opacity:0.0; 
stroke:#840000; stroke-width:60; stroke-opacity:1; 
stroke-linecap:round; stroke-linejoin:round;">
<text x="1520" y="5840"
textLength="540" font-size="660" lengthAdjust="spacingAndGlyphs"
text-anchor="middle" opacity="0">5</text>
<path d="M1630 5310
L1400 5310
L1370 5550
L1400 5530
L1440 5500
L1560 5500
L1610 5530
L1630 5550
L1660 5600
L1660 5720
L1630 5760
L1610 5790
L1560 5810
L1440 5810
L1400 5790
L1370 5760
" />
<path d="M2020 6940
L1020 6940
" />
</g>
<g style="fill:#008484; fill-opacity:0.0; 
stroke:#008484; stroke-width:60; stroke-opacity:1; 
stroke-linecap:round; stroke-linejoin:round;">
<text x="2420" y="7190"
textLength="1040" font-size="660" lengthAdjust="spacingAndGlyphs"
text-anchor="start" opacity="0">B2</text>
<path d="M2730 6900
L2800 6920
L2830 6950
L2850 6990
L2850 7070
L2830 7110
L2800 7140
L2750 7160
L2560 7160
L2560 6660
L2730 6660
L2780 6690
L2800 6710
L2830 6760
L2830 6800
L2800 6850
L2780 6880
L2730 6900
L2560 6900
" />
<path d="M3040 6710
L3060 6690
L3110 6660
L3230 6660
L3280 6690
L3300 6710
L3330 6760
L3330 6800
L3300 6880
L3020 7160
L3330 7160
" />
</g>
<g style="fill:#840000; fill-opacity:0.0; 
stroke:#840000; stroke-width:60; stroke-opacity:1; 
stroke-linecap:round; stroke-linejoin:round;">
<text x="1520" y="6840"
textLength="540" font-size="660" lengthAdjust="spacingAndGlyphs"
text-anchor="middle" opacity="0">6</text>
<path d="M1610 6310
L1520 6310
L1470 6340
L1440 6360
L1400 6430
L1370 6530
L1370 6720
L1400 6760
L1420 6790
L1470 6810
L1560 6810
L1610 6790
L1630 6760
L1660 6720
L1660 6600
L1630 6550
L1610 6530
L1560 6500
L1470 6500
L1420 6530
L1400 6550
L1370 6600
" />
<path d="M2020 7940
L1020 7940
" />
</g>
<g style="fill:#008484; fill-opacity:0.0; 
stroke:#008484; stroke-width:60; stroke-opacity:1; 
stroke-linecap:round; stroke-linejoin:round;">
<text x="2420" y="8190"
textLength="1580" font-size="660" lengthAdjust="spacingAndGlyphs"
text-anchor="start" opacity="0">GND</text>
<path d="M2830 7690
L2780 7660
L2710 7660
L2640 7690
L2590 7730
L2560 7780
L2540 7880
L2540 7950
L2560 8040
L2590 8090
L2640 8140
L2710 8160
L2750 8160
L2830 8140
L2850 8110
L2850 7950
L2750 7950
" />
<path d="M3060 8160
L3060 7660
L3350 8160
L3350 7660
" />
<path d="M3590 8160
L3590 7660
L3710 7660
L3780 7690
L3830 7730
L3850 7780
L3870 7880
L3870 7950
L3850 8040
L3830 8090
L3780 8140
L3710 8160
L3590 8160
" />
</g>
<g style="fill:#840000; fill-opacity:0.0; 
stroke:#840000; stroke-width:60; stroke-opacity:1; 
stroke-linecap:round; stroke-linejoin:round;">
<text x="1520" y="7840"
textLength="540" font-size="660" lengthAdjust="spacingAndGlyphs"
text-anchor="middle" opacity="0">7</text>
<path d="M1350 7310
L1680 7310
L1470 7810
" />
<path d="M2020 8940
L1020 8940
" />
</g>
<g style="fill:#008484; fill-opacity:0.0; 
stroke:#008484; stroke-width:60; stroke-opacity:1; 
stroke-linecap:round; stroke-linejoin:round;">
<text x="2420" y="9190"
textLength="1960" font-size="660" lengthAdjust="spacingAndGlyphs"
text-anchor="start" opacity="0">VMOT</text>
<path d="M2490 8660
L2660 9160
L2830 8660
" />
<path d="M2990 9160
L2990 8660
L3160 9020
L3330 8660
L3330 9160
" />
<path d="M3660 8660
L3750 8660
L3800 8690
L3850 8730
L3870 8830
L3870 8990
L3850 9090
L3800 9140
L3750 9160
L3660 9160
L3610 9140
L3560 9090
L3540 8990
L3540 8830
L3560 8730
L3610 8690
L3660 8660
" />
<path d="M4020 8660
L4300 8660
" />
<path d="M4160 9160
L4160 8660
" />
</g>
<g style="fill:#840000; fill-opacity:0.0; 
stroke:#840000; stroke-width:60; stroke-opacity:1; 
stroke-linecap:round; stroke-linejoin:round;">
<text x="1520" y="8840"
textLength="540" font-size="660" lengthAdjust="spacingAndGlyphs"
text-anchor="middle" opacity="0">8</text>
<path d="M1470 8530
L1420 8500
L1400 8480
L1370 8430
L1370 8410
L1400 8360
L1420 8340
L1470 8310
L1560 8310
L1610 8340
L1630 8360
L1660 8410
L1660 8430
L1630 8480
L1610 8500
L1560 8530
L1470 8530
L1420 8550
L1400 8570
L1370 8620
L1370 8720
L1400 8760
L1420 8790
L1470 8810
L1560 8810
L1610 8790
L1630 8760
L1660 8720
L1660 8620
L1630 8570
L1610 8550
L1560 8530
" />
<path d="M8020 8940
L9020 8940
" />
</g>
<g style="fill:#008484; fill-opacity:0.0; 
stroke:#008484; stroke-width:60; stroke-opacity:1; 
stroke-linecap:round; stroke-linejoin:round;">
<text x="7620" y="9190"
textLength="1040" font-size="660" lengthAdjust="spacingAndGlyphs"
text-anchor="end" opacity="0">EN</text>
<path d="M6730 8900
L6890 8900
" />
<path d="M6970 9160
L6730 9160
L6730 8660
L6970 8660
" />
<path d="M7180 9160
L7180 8660
L7470 9160
L7470 8660
" />
</g>
<g style="fill:#840000; fill-opacity:0.0; 
stroke:#840000; stroke-width:60; stroke-opacity:1; 
stroke-linecap:round; stroke-linejoin:round;">
<text x="8520" y="8840"
textLength="540" font-size="660" lengthAdjust="spacingAndGlyphs"
text-anchor="middle" opacity="0">9</text>
<path d="M8420 8810
L8520 8810
L8560 8790
L8590 8760
L8630 8690
L8660 8600
L8660 8410
L8630 8360
L8610 8340
L8560 8310
L8470 8310
L8420 8340
L8400 8360
L8370 8410
L8370 8530
L8400 8570
L8420 8600
L8470 8620
L8560 8620
L8610 8600
L8630 8570
L8660 8530
" />
</g>
<g style="fill:#840084; fill-opacity:0.0; 
stroke:#840084; stroke-width:60; stroke-opacity:1; 
stroke-linecap:round; stroke-linejoin:round;">
</g>
<g style="fill:#008484; fill-opacity:0.0; 
stroke:#008484; stroke-width:60; stroke-opacity:1; 
stroke-linecap:round; stroke-linejoin:round;">
<text x="2300" y="9870"
textLength="1010" font-size="660" lengthAdjust="spacingAndGlyphs"
text-anchor="middle" opacity="0">U?</text>
<path d="M1940 9340
L1940 9750
L1960 9790
L1990 9820
L2030 9840
L2130 9840
L2180 9820
L2200 9790
L2220 9750
L2220 9340
" />
<path d="M2530 9790
L2560 9820
L2530 9840
L2510 9820
L2530 9790
L2530 9840
" />
<path d="M2440 9370
L2490 9340
L2600 9340
L2650 9370
L2680 9410
L2680 9460
L2650 9510
L2630 9530
L2580 9560
L2560 9580
L2530 9630
L2530 9650
" />
<g transform="rotate(-90 5030 5440)">
<text x="5030" y="5690"
textLength="3390" font-size="660" lengthAdjust="spacingAndGlyphs"
text-anchor="middle" opacity="0">DRV8825</text>
</g>
<path d="M5250 6980
L4750 6980
L4750 6860
L4780 6790
L4820 6740
L4870 6720
L4970 6700
L5040 6700
L5130 6720
L5180 6740
L5230 6790
L5250 6860
L5250 6980
" />
<path d="M5250 6200
L5010 6360
" />
<path d="M5250 6480
L4750 6480
L4750 6290
L4780 6240
L4800 6220
L4850 6200
L4920 6200
L4970 6220
L4990 6240
L5010 6290
L5010 6480
" />
<path d="M4750 6050
L5250 5890
L4750 5720
" />
<path d="M4970 5480
L4940 5530
L4920 5550
L4870 5580
L4850 5580
L4800 5550
L4780 5530
L4750 5480
L4750 5390
L4780 5340
L4800 5320
L4850 5290
L4870 5290
L4920 5320
L4940 5340
L4970 5390
L4970 5480
L4990 5530
L5010 5550
L5060 5580
L5160 5580
L5200 5550
L5230 5530
L5250 5480
L5250 5390
L5230 5340
L5200 5320
L5160 5290
L5060 5290
L5010 5320
L4990 5340
L4970 5390
" />
<path d="M4970 5010
L4940 5050
L4920 5080
L4870 5100
L4850 5100
L4800 5080
L4780 5050
L4750 5010
L4750 4910
L4780 4860
L4800 4840
L4850 4820
L4870 4820
L4920 4840
L4940 4860
L4970 4910
L4970 5010
L4990 5050
L5010 5080
L5060 5100
L5160 5100
L5200 5080
L5230 5050
L5250 5010
L5250 4910
L5230 4860
L5200 4840
L5160 4820
L5060 4820
L5010 4840
L4990 4860
L4970 4910
" />
<path d="M4800 4630
L4780 4600
L4750 4550
L4750 4440
L4780 4390
L4800 4360
L4850 4340
L4890 4340
L4970 4360
L5250 4650
L5250 4340
" />
<path d="M4750 3890
L4750 4130
L4990 4150
L4970 4130
L4940 4080
L4940 3960
L4970 3910
L4990 3890
L5040 3860
L5160 3860
L5200 3890
L5230 3910
L5250 3960
L5250 4080
L5230 4130
L5200 4150
" />
</g> 
</svg>
