<?xml version="1.0" standalone="no"?>
 <!DOCTYPE svg PUBLIC "-//W3C//DTD SVG 1.1//EN" 
 "http://www.w3.org/Graphics/SVG/1.1/DTD/svg11.dtd"> 
<svg
  xmlns:svg="http://www.w3.org/2000/svg"
  xmlns="http://www.w3.org/2000/svg"
  xmlns:xlink="http://www.w3.org/1999/xlink"
  version="1.1"
  width="2.552700cm" height="3.065780cm" viewBox="0 0 10050 12070">
<title>SVG Picture created as DRV8825.svg date 2020/10/21 23:08:55 </title>
  <desc>Picture generated by Eeschema-SVG </desc>
<g style="fill:#000000; fill-opacity:1;stroke:#000000; stroke-opacity:1;
stroke-linecap:round; stroke-linejoin:round;"
 transform="translate(0 0) scale(1 1)">
</g>
<g style="fill:#840000; fill-opacity:0.0; 
stroke:#840000; stroke-width:-10; stroke-opacity:1; 
stroke-linecap:round; stroke-linejoin:round;">
</g>
<g style="fill:#FFFFC2; fill-opacity:0.0; 
stroke:#FFFFC2; stroke-width:-10; stroke-opacity:1; 
stroke-linecap:round; stroke-linejoin:round;">
</g>
<g style="fill:#FFFFC2; fill-opacity:0.6; 
stroke:#FFFFC2; stroke-width:0; stroke-opacity:1; 
stroke-linecap:round; stroke-linejoin:round;">
<rect x="2020" y="1030" width="6000" height="10000" rx="0" />
</g>
<g style="fill:#840000; fill-opacity:0.6; 
stroke:#840000; stroke-width:0; stroke-opacity:1; 
stroke-linecap:round; stroke-linejoin:round;">
</g>
<g style="fill:#840000; fill-opacity:0.0; 
stroke:#840000; stroke-width:60; stroke-opacity:1; 
stroke-linecap:round; stroke-linejoin:round;">
<rect x="2020" y="1030" width="6000" height="10000" rx="0" />
<rect x="2020" y="1030" width="6000" height="10000" rx="0" />
<path d="M2020 2030
L1020 2030
" />
</g>
<g style="fill:#008484; fill-opacity:0.0; 
stroke:#008484; stroke-width:60; stroke-opacity:1; 
stroke-linecap:round; stroke-linejoin:round;">
<text x="2420" y="2280"
textLength="1040" font-size="660" lengthAdjust="spacingAndGlyphs"
text-anchor="start" opacity="0">EN</text>
<path d="M2560 1990
L2730 1990
" />
<path d="M2800 2250
L2560 2250
L2560 1750
L2800 1750
" />
<path d="M3020 2250
L3020 1750
L3300 2250
L3300 1750
" />
</g>
<g style="fill:#840000; fill-opacity:0.0; 
stroke:#840000; stroke-width:60; stroke-opacity:1; 
stroke-linecap:round; stroke-linejoin:round;">
<text x="1520" y="1930"
textLength="540" font-size="660" lengthAdjust="spacingAndGlyphs"
text-anchor="middle" opacity="0">1</text>
<path d="M1660 1900
L1370 1900
" />
<path d="M1520 1900
L1520 1400
L1470 1470
L1420 1520
L1370 1540
" />
<path d="M8020 8030
L9020 8030
" />
</g>
<g style="fill:#008484; fill-opacity:0.0; 
stroke:#008484; stroke-width:60; stroke-opacity:1; 
stroke-linecap:round; stroke-linejoin:round;">
<text x="7620" y="8280"
textLength="1270" font-size="660" lengthAdjust="spacingAndGlyphs"
text-anchor="end" opacity="0">FLT</text>
<path d="M6660 7990
L6490 7990
" />
<path d="M6490 8250
L6490 7750
L6730 7750
" />
<path d="M7160 8250
L6920 8250
L6920 7750
" />
<path d="M7250 7750
L7540 7750
" />
<path d="M7390 8250
L7390 7750
" />
</g>
<g style="fill:#840000; fill-opacity:0.0; 
stroke:#840000; stroke-width:60; stroke-opacity:1; 
stroke-linecap:round; stroke-linejoin:round;">
<text x="8520" y="7930"
textLength="1010" font-size="660" lengthAdjust="spacingAndGlyphs"
text-anchor="middle" opacity="0">10</text>
<path d="M8420 7900
L8130 7900
" />
<path d="M8280 7900
L8280 7400
L8230 7470
L8180 7520
L8130 7540
" />
<path d="M8730 7400
L8780 7400
L8820 7430
L8850 7450
L8870 7500
L8900 7590
L8900 7710
L8870 7810
L8850 7850
L8820 7880
L8780 7900
L8730 7900
L8680 7880
L8660 7850
L8630 7810
L8610 7710
L8610 7590
L8630 7500
L8660 7450
L8680 7430
L8730 7400
" />
<path d="M8020 7030
L9020 7030
" />
</g>
<g style="fill:#008484; fill-opacity:0.0; 
stroke:#008484; stroke-width:60; stroke-opacity:1; 
stroke-linecap:round; stroke-linejoin:round;">
<text x="7620" y="7280"
textLength="960" font-size="660" lengthAdjust="spacingAndGlyphs"
text-anchor="end" opacity="0">2A</text>
<path d="M6780 6800
L6800 6780
L6850 6750
L6970 6750
L7010 6780
L7040 6800
L7060 6850
L7060 6890
L7040 6970
L6750 7250
L7060 7250
" />
<path d="M7250 7110
L7490 7110
" />
<path d="M7200 7250
L7370 6750
L7540 7250
" />
</g>
<g style="fill:#840000; fill-opacity:0.0; 
stroke:#840000; stroke-width:60; stroke-opacity:1; 
stroke-linecap:round; stroke-linejoin:round;">
<text x="8520" y="6930"
textLength="1010" font-size="660" lengthAdjust="spacingAndGlyphs"
text-anchor="middle" opacity="0">11</text>
<path d="M8420 6900
L8130 6900
" />
<path d="M8280 6900
L8280 6400
L8230 6470
L8180 6520
L8130 6540
" />
<path d="M8900 6900
L8610 6900
" />
<path d="M8750 6900
L8750 6400
L8710 6470
L8660 6520
L8610 6540
" />
<path d="M8020 6030
L9020 6030
" />
</g>
<g style="fill:#008484; fill-opacity:0.0; 
stroke:#008484; stroke-width:60; stroke-opacity:1; 
stroke-linecap:round; stroke-linejoin:round;">
<text x="7620" y="6280"
textLength="960" font-size="660" lengthAdjust="spacingAndGlyphs"
text-anchor="end" opacity="0">1A</text>
<path d="M7060 6250
L6780 6250
" />
<path d="M6920 6250
L6920 5750
L6870 5820
L6820 5870
L6780 5890
" />
<path d="M7250 6110
L7490 6110
" />
<path d="M7200 6250
L7370 5750
L7540 6250
" />
</g>
<g style="fill:#840000; fill-opacity:0.0; 
stroke:#840000; stroke-width:60; stroke-opacity:1; 
stroke-linecap:round; stroke-linejoin:round;">
<text x="8520" y="5930"
textLength="1010" font-size="660" lengthAdjust="spacingAndGlyphs"
text-anchor="middle" opacity="0">12</text>
<path d="M8420 5900
L8130 5900
" />
<path d="M8280 5900
L8280 5400
L8230 5470
L8180 5520
L8130 5540
" />
<path d="M8610 5450
L8630 5430
L8680 5400
L8800 5400
L8850 5430
L8870 5450
L8900 5500
L8900 5540
L8870 5620
L8590 5900
L8900 5900
" />
<path d="M8020 5030
L9020 5030
" />
</g>
<g style="fill:#008484; fill-opacity:0.0; 
stroke:#008484; stroke-width:60; stroke-opacity:1; 
stroke-linecap:round; stroke-linejoin:round;">
<text x="7620" y="5280"
textLength="1040" font-size="660" lengthAdjust="spacingAndGlyphs"
text-anchor="end" opacity="0">1B</text>
<path d="M6990 5250
L6700 5250
" />
<path d="M6850 5250
L6850 4750
L6800 4820
L6750 4870
L6700 4890
" />
<path d="M7370 4990
L7440 5010
L7470 5040
L7490 5080
L7490 5160
L7470 5200
L7440 5230
L7390 5250
L7200 5250
L7200 4750
L7370 4750
L7420 4780
L7440 4800
L7470 4850
L7470 4890
L7440 4940
L7420 4970
L7370 4990
L7200 4990
" />
</g>
<g style="fill:#840000; fill-opacity:0.0; 
stroke:#840000; stroke-width:60; stroke-opacity:1; 
stroke-linecap:round; stroke-linejoin:round;">
<text x="8520" y="4930"
textLength="1010" font-size="660" lengthAdjust="spacingAndGlyphs"
text-anchor="middle" opacity="0">13</text>
<path d="M8420 4900
L8130 4900
" />
<path d="M8280 4900
L8280 4400
L8230 4470
L8180 4520
L8130 4540
" />
<path d="M8590 4400
L8900 4400
L8730 4590
L8800 4590
L8850 4620
L8870 4640
L8900 4690
L8900 4810
L8870 4850
L8850 4880
L8800 4900
L8660 4900
L8610 4880
L8590 4850
" />
<path d="M8020 4030
L9020 4030
" />
</g>
<g style="fill:#008484; fill-opacity:0.0; 
stroke:#008484; stroke-width:60; stroke-opacity:1; 
stroke-linecap:round; stroke-linejoin:round;">
<text x="7620" y="4280"
textLength="1040" font-size="660" lengthAdjust="spacingAndGlyphs"
text-anchor="end" opacity="0">2B</text>
<path d="M6700 3800
L6730 3780
L6780 3750
L6890 3750
L6940 3780
L6970 3800
L6990 3850
L6990 3890
L6970 3970
L6680 4250
L6990 4250
" />
<path d="M7370 3990
L7440 4010
L7470 4040
L7490 4080
L7490 4160
L7470 4200
L7440 4230
L7390 4250
L7200 4250
L7200 3750
L7370 3750
L7420 3780
L7440 3800
L7470 3850
L7470 3890
L7440 3940
L7420 3970
L7370 3990
L7200 3990
" />
</g>
<g style="fill:#840000; fill-opacity:0.0; 
stroke:#840000; stroke-width:60; stroke-opacity:1; 
stroke-linecap:round; stroke-linejoin:round;">
<text x="8520" y="3930"
textLength="1010" font-size="660" lengthAdjust="spacingAndGlyphs"
text-anchor="middle" opacity="0">14</text>
<path d="M8420 3900
L8130 3900
" />
<path d="M8280 3900
L8280 3400
L8230 3470
L8180 3520
L8130 3540
" />
<path d="M8850 3570
L8850 3900
" />
<path d="M8730 3380
L8610 3730
L8920 3730
" />
<path d="M8020 3030
L9020 3030
" />
</g>
<g style="fill:#008484; fill-opacity:0.0; 
stroke:#008484; stroke-width:60; stroke-opacity:1; 
stroke-linecap:round; stroke-linejoin:round;">
<text x="7620" y="3280"
textLength="1580" font-size="660" lengthAdjust="spacingAndGlyphs"
text-anchor="end" opacity="0">GND</text>
<path d="M6440 2780
L6390 2750
L6320 2750
L6250 2780
L6200 2820
L6180 2870
L6160 2970
L6160 3040
L6180 3130
L6200 3180
L6250 3230
L6320 3250
L6370 3250
L6440 3230
L6470 3200
L6470 3040
L6370 3040
" />
<path d="M6680 3250
L6680 2750
L6970 3250
L6970 2750
" />
<path d="M7200 3250
L7200 2750
L7320 2750
L7390 2780
L7440 2820
L7470 2870
L7490 2970
L7490 3040
L7470 3130
L7440 3180
L7390 3230
L7320 3250
L7200 3250
" />
</g>
<g style="fill:#840000; fill-opacity:0.0; 
stroke:#840000; stroke-width:60; stroke-opacity:1; 
stroke-linecap:round; stroke-linejoin:round;">
<text x="8520" y="2930"
textLength="1010" font-size="660" lengthAdjust="spacingAndGlyphs"
text-anchor="middle" opacity="0">15</text>
<path d="M8420 2900
L8130 2900
" />
<path d="M8280 2900
L8280 2400
L8230 2470
L8180 2520
L8130 2540
" />
<path d="M8870 2400
L8630 2400
L8610 2640
L8630 2620
L8680 2590
L8800 2590
L8850 2620
L8870 2640
L8900 2690
L8900 2810
L8870 2850
L8850 2880
L8800 2900
L8680 2900
L8630 2880
L8610 2850
" />
<path d="M8020 2030
L9020 2030
" />
</g>
<g style="fill:#008484; fill-opacity:0.0; 
stroke:#008484; stroke-width:60; stroke-opacity:1; 
stroke-linecap:round; stroke-linejoin:round;">
<text x="7620" y="2280"
textLength="1960" font-size="660" lengthAdjust="spacingAndGlyphs"
text-anchor="end" opacity="0">VMOT</text>
<path d="M5730 1750
L5890 2250
L6060 1750
" />
<path d="M6230 2250
L6230 1750
L6390 2110
L6560 1750
L6560 2250
" />
<path d="M6890 1750
L6990 1750
L7040 1780
L7090 1820
L7110 1920
L7110 2080
L7090 2180
L7040 2230
L6990 2250
L6890 2250
L6850 2230
L6800 2180
L6780 2080
L6780 1920
L6800 1820
L6850 1780
L6890 1750
" />
<path d="M7250 1750
L7540 1750
" />
<path d="M7390 2250
L7390 1750
" />
</g>
<g style="fill:#840000; fill-opacity:0.0; 
stroke:#840000; stroke-width:60; stroke-opacity:1; 
stroke-linecap:round; stroke-linejoin:round;">
<text x="8520" y="1930"
textLength="1010" font-size="660" lengthAdjust="spacingAndGlyphs"
text-anchor="middle" opacity="0">16</text>
<path d="M8420 1900
L8130 1900
" />
<path d="M8280 1900
L8280 1400
L8230 1470
L8180 1520
L8130 1540
" />
<path d="M8850 1400
L8750 1400
L8710 1430
L8680 1450
L8630 1520
L8610 1620
L8610 1810
L8630 1850
L8660 1880
L8710 1900
L8800 1900
L8850 1880
L8870 1850
L8900 1810
L8900 1690
L8870 1640
L8850 1620
L8800 1590
L8710 1590
L8660 1620
L8630 1640
L8610 1690
" />
<path d="M2020 3030
L1020 3030
" />
</g>
<g style="fill:#008484; fill-opacity:0.0; 
stroke:#008484; stroke-width:60; stroke-opacity:1; 
stroke-linecap:round; stroke-linejoin:round;">
<text x="2420" y="3280"
textLength="1110" font-size="660" lengthAdjust="spacingAndGlyphs"
text-anchor="start" opacity="0">M0</text>
<path d="M2560 3250
L2560 2750
L2730 3110
L2900 2750
L2900 3250
" />
<path d="M3230 2750
L3280 2750
L3330 2780
L3350 2800
L3370 2850
L3400 2940
L3400 3060
L3370 3160
L3350 3200
L3330 3230
L3280 3250
L3230 3250
L3180 3230
L3160 3200
L3140 3160
L3110 3060
L3110 2940
L3140 2850
L3160 2800
L3180 2780
L3230 2750
" />
</g>
<g style="fill:#840000; fill-opacity:0.0; 
stroke:#840000; stroke-width:60; stroke-opacity:1; 
stroke-linecap:round; stroke-linejoin:round;">
<text x="1520" y="2930"
textLength="540" font-size="660" lengthAdjust="spacingAndGlyphs"
text-anchor="middle" opacity="0">2</text>
<path d="M1370 2450
L1400 2430
L1440 2400
L1560 2400
L1610 2430
L1630 2450
L1660 2500
L1660 2540
L1630 2620
L1350 2900
L1660 2900
" />
<path d="M2020 4030
L1020 4030
" />
</g>
<g style="fill:#008484; fill-opacity:0.0; 
stroke:#008484; stroke-width:60; stroke-opacity:1; 
stroke-linecap:round; stroke-linejoin:round;">
<text x="2420" y="4280"
textLength="1110" font-size="660" lengthAdjust="spacingAndGlyphs"
text-anchor="start" opacity="0">M1</text>
<path d="M2560 4250
L2560 3750
L2730 4110
L2900 3750
L2900 4250
" />
<path d="M3400 4250
L3110 4250
" />
<path d="M3250 4250
L3250 3750
L3210 3820
L3160 3870
L3110 3890
" />
</g>
<g style="fill:#840000; fill-opacity:0.0; 
stroke:#840000; stroke-width:60; stroke-opacity:1; 
stroke-linecap:round; stroke-linejoin:round;">
<text x="1520" y="3930"
textLength="540" font-size="660" lengthAdjust="spacingAndGlyphs"
text-anchor="middle" opacity="0">3</text>
<path d="M1350 3400
L1660 3400
L1490 3590
L1560 3590
L1610 3620
L1630 3640
L1660 3690
L1660 3810
L1630 3850
L1610 3880
L1560 3900
L1420 3900
L1370 3880
L1350 3850
" />
<path d="M2020 5030
L1020 5030
" />
</g>
<g style="fill:#008484; fill-opacity:0.0; 
stroke:#008484; stroke-width:60; stroke-opacity:1; 
stroke-linecap:round; stroke-linejoin:round;">
<text x="2420" y="5280"
textLength="1110" font-size="660" lengthAdjust="spacingAndGlyphs"
text-anchor="start" opacity="0">M2</text>
<path d="M2560 5250
L2560 4750
L2730 5110
L2900 4750
L2900 5250
" />
<path d="M3110 4800
L3140 4780
L3180 4750
L3300 4750
L3350 4780
L3370 4800
L3400 4850
L3400 4890
L3370 4970
L3090 5250
L3400 5250
" />
</g>
<g style="fill:#840000; fill-opacity:0.0; 
stroke:#840000; stroke-width:60; stroke-opacity:1; 
stroke-linecap:round; stroke-linejoin:round;">
<text x="1520" y="4930"
textLength="540" font-size="660" lengthAdjust="spacingAndGlyphs"
text-anchor="middle" opacity="0">4</text>
<path d="M1610 4570
L1610 4900
" />
<path d="M1490 4380
L1370 4730
L1680 4730
" />
<path d="M2020 6030
L1020 6030
" />
</g>
<g style="fill:#008484; fill-opacity:0.0; 
stroke:#008484; stroke-width:60; stroke-opacity:1; 
stroke-linecap:round; stroke-linejoin:round;">
<text x="2420" y="6280"
textLength="1420" font-size="660" lengthAdjust="spacingAndGlyphs"
text-anchor="start" opacity="0">RST</text>
<path d="M2850 6250
L2680 6010
" />
<path d="M2560 6250
L2560 5750
L2750 5750
L2800 5780
L2830 5800
L2850 5850
L2850 5920
L2830 5970
L2800 5990
L2750 6010
L2560 6010
" />
<path d="M3040 6230
L3110 6250
L3230 6250
L3280 6230
L3300 6200
L3330 6160
L3330 6110
L3300 6060
L3280 6040
L3230 6010
L3140 5990
L3090 5970
L3060 5940
L3040 5890
L3040 5850
L3060 5800
L3090 5780
L3140 5750
L3250 5750
L3330 5780
" />
<path d="M3470 5750
L3750 5750
" />
<path d="M3610 6250
L3610 5750
" />
</g>
<g style="fill:#840000; fill-opacity:0.0; 
stroke:#840000; stroke-width:60; stroke-opacity:1; 
stroke-linecap:round; stroke-linejoin:round;">
<text x="1520" y="5930"
textLength="540" font-size="660" lengthAdjust="spacingAndGlyphs"
text-anchor="middle" opacity="0">5</text>
<path d="M1630 5400
L1400 5400
L1370 5640
L1400 5620
L1440 5590
L1560 5590
L1610 5620
L1630 5640
L1660 5690
L1660 5810
L1630 5850
L1610 5880
L1560 5900
L1440 5900
L1400 5880
L1370 5850
" />
<path d="M2020 7030
L1020 7030
" />
</g>
<g style="fill:#008484; fill-opacity:0.0; 
stroke:#008484; stroke-width:60; stroke-opacity:1; 
stroke-linecap:round; stroke-linejoin:round;">
<text x="2420" y="7280"
textLength="1440" font-size="660" lengthAdjust="spacingAndGlyphs"
text-anchor="start" opacity="0">SLP</text>
<path d="M2540 7230
L2610 7250
L2730 7250
L2780 7230
L2800 7200
L2830 7160
L2830 7110
L2800 7060
L2780 7040
L2730 7010
L2640 6990
L2590 6970
L2560 6940
L2540 6890
L2540 6850
L2560 6800
L2590 6780
L2640 6750
L2750 6750
L2830 6780
" />
<path d="M3280 7250
L3040 7250
L3040 6750
" />
<path d="M3450 7250
L3450 6750
L3640 6750
L3680 6780
L3710 6800
L3730 6850
L3730 6920
L3710 6970
L3680 6990
L3640 7010
L3450 7010
" />
</g>
<g style="fill:#840000; fill-opacity:0.0; 
stroke:#840000; stroke-width:60; stroke-opacity:1; 
stroke-linecap:round; stroke-linejoin:round;">
<text x="1520" y="6930"
textLength="540" font-size="660" lengthAdjust="spacingAndGlyphs"
text-anchor="middle" opacity="0">6</text>
<path d="M1610 6400
L1520 6400
L1470 6430
L1440 6450
L1400 6520
L1370 6620
L1370 6810
L1400 6850
L1420 6880
L1470 6900
L1560 6900
L1610 6880
L1630 6850
L1660 6810
L1660 6690
L1630 6640
L1610 6620
L1560 6590
L1470 6590
L1420 6620
L1400 6640
L1370 6690
" />
<path d="M2020 8030
L1020 8030
" />
</g>
<g style="fill:#008484; fill-opacity:0.0; 
stroke:#008484; stroke-width:60; stroke-opacity:1; 
stroke-linecap:round; stroke-linejoin:round;">
<text x="2420" y="8280"
textLength="1420" font-size="660" lengthAdjust="spacingAndGlyphs"
text-anchor="start" opacity="0">STP</text>
<path d="M2540 8230
L2610 8250
L2730 8250
L2780 8230
L2800 8200
L2830 8160
L2830 8110
L2800 8060
L2780 8040
L2730 8010
L2640 7990
L2590 7970
L2560 7940
L2540 7890
L2540 7850
L2560 7800
L2590 7780
L2640 7750
L2750 7750
L2830 7780
" />
<path d="M2970 7750
L3250 7750
" />
<path d="M3110 8250
L3110 7750
" />
<path d="M3420 8250
L3420 7750
L3610 7750
L3660 7780
L3680 7800
L3710 7850
L3710 7920
L3680 7970
L3660 7990
L3610 8010
L3420 8010
" />
</g>
<g style="fill:#840000; fill-opacity:0.0; 
stroke:#840000; stroke-width:60; stroke-opacity:1; 
stroke-linecap:round; stroke-linejoin:round;">
<text x="1520" y="7930"
textLength="540" font-size="660" lengthAdjust="spacingAndGlyphs"
text-anchor="middle" opacity="0">7</text>
<path d="M1350 7400
L1680 7400
L1470 7900
" />
<path d="M2020 9030
L1020 9030
" />
</g>
<g style="fill:#008484; fill-opacity:0.0; 
stroke:#008484; stroke-width:60; stroke-opacity:1; 
stroke-linecap:round; stroke-linejoin:round;">
<text x="2420" y="9280"
textLength="1300" font-size="660" lengthAdjust="spacingAndGlyphs"
text-anchor="start" opacity="0">DIR</text>
<path d="M2560 9250
L2560 8750
L2680 8750
L2750 8780
L2800 8820
L2830 8870
L2850 8970
L2850 9040
L2830 9130
L2800 9180
L2750 9230
L2680 9250
L2560 9250
" />
<path d="M3060 9250
L3060 8750
" />
<path d="M3590 9250
L3420 9010
" />
<path d="M3300 9250
L3300 8750
L3490 8750
L3540 8780
L3560 8800
L3590 8850
L3590 8920
L3560 8970
L3540 8990
L3490 9010
L3300 9010
" />
</g>
<g style="fill:#840000; fill-opacity:0.0; 
stroke:#840000; stroke-width:60; stroke-opacity:1; 
stroke-linecap:round; stroke-linejoin:round;">
<text x="1520" y="8930"
textLength="540" font-size="660" lengthAdjust="spacingAndGlyphs"
text-anchor="middle" opacity="0">8</text>
<path d="M1470 8620
L1420 8590
L1400 8570
L1370 8520
L1370 8500
L1400 8450
L1420 8430
L1470 8400
L1560 8400
L1610 8430
L1630 8450
L1660 8500
L1660 8520
L1630 8570
L1610 8590
L1560 8620
L1470 8620
L1420 8640
L1400 8660
L1370 8710
L1370 8810
L1400 8850
L1420 8880
L1470 8900
L1560 8900
L1610 8880
L1630 8850
L1660 8810
L1660 8710
L1630 8660
L1610 8640
L1560 8620
" />
<path d="M8020 9030
L9020 9030
" />
</g>
<g style="fill:#008484; fill-opacity:0.0; 
stroke:#008484; stroke-width:60; stroke-opacity:1; 
stroke-linecap:round; stroke-linejoin:round;">
<text x="7620" y="9280"
textLength="1580" font-size="660" lengthAdjust="spacingAndGlyphs"
text-anchor="end" opacity="0">GND</text>
<path d="M6440 8780
L6390 8750
L6320 8750
L6250 8780
L6200 8820
L6180 8870
L6160 8970
L6160 9040
L6180 9130
L6200 9180
L6250 9230
L6320 9250
L6370 9250
L6440 9230
L6470 9200
L6470 9040
L6370 9040
" />
<path d="M6680 9250
L6680 8750
L6970 9250
L6970 8750
" />
<path d="M7200 9250
L7200 8750
L7320 8750
L7390 8780
L7440 8820
L7470 8870
L7490 8970
L7490 9040
L7470 9130
L7440 9180
L7390 9230
L7320 9250
L7200 9250
" />
</g>
<g style="fill:#840000; fill-opacity:0.0; 
stroke:#840000; stroke-width:60; stroke-opacity:1; 
stroke-linecap:round; stroke-linejoin:round;">
<text x="8520" y="8930"
textLength="540" font-size="660" lengthAdjust="spacingAndGlyphs"
text-anchor="middle" opacity="0">9</text>
<path d="M8420 8900
L8520 8900
L8560 8880
L8590 8850
L8630 8780
L8660 8690
L8660 8500
L8630 8450
L8610 8430
L8560 8400
L8470 8400
L8420 8430
L8400 8450
L8370 8500
L8370 8620
L8400 8660
L8420 8690
L8470 8710
L8560 8710
L8610 8690
L8630 8660
L8660 8620
" />
</g>
<g style="fill:#840084; fill-opacity:0.0; 
stroke:#840084; stroke-width:60; stroke-opacity:1; 
stroke-linecap:round; stroke-linejoin:round;">
</g>
<g style="fill:#008484; fill-opacity:0.0; 
stroke:#008484; stroke-width:60; stroke-opacity:1; 
stroke-linecap:round; stroke-linejoin:round;">
<text x="3020" y="10300"
textLength="1010" font-size="660" lengthAdjust="spacingAndGlyphs"
text-anchor="middle" opacity="0">U?</text>
<path d="M2660 9770
L2660 10180
L2680 10220
L2710 10250
L2750 10270
L2850 10270
L2900 10250
L2920 10220
L2940 10180
L2940 9770
" />
<path d="M3250 10220
L3280 10250
L3250 10270
L3230 10250
L3250 10220
L3250 10270
" />
<path d="M3160 9800
L3210 9770
L3320 9770
L3370 9800
L3400 9840
L3400 9890
L3370 9940
L3350 9960
L3300 9990
L3280 10010
L3250 10060
L3250 10080
" />
<text x="6020" y="10300"
textLength="3390" font-size="660" lengthAdjust="spacingAndGlyphs"
text-anchor="middle" opacity="0">DRV8825</text>
<path d="M4470 10270
L4470 9770
L4590 9770
L4660 9800
L4710 9840
L4730 9890
L4750 9990
L4750 10060
L4730 10150
L4710 10200
L4660 10250
L4590 10270
L4470 10270
" />
<path d="M5250 10270
L5090 10030
" />
<path d="M4970 10270
L4970 9770
L5160 9770
L5210 9800
L5230 9820
L5250 9870
L5250 9940
L5230 9990
L5210 10010
L5160 10030
L4970 10030
" />
<path d="M5400 9770
L5560 10270
L5730 9770
" />
<path d="M5970 9990
L5920 9960
L5900 9940
L5870 9890
L5870 9870
L5900 9820
L5920 9800
L5970 9770
L6060 9770
L6110 9800
L6130 9820
L6160 9870
L6160 9890
L6130 9940
L6110 9960
L6060 9990
L5970 9990
L5920 10010
L5900 10030
L5870 10080
L5870 10180
L5900 10220
L5920 10250
L5970 10270
L6060 10270
L6110 10250
L6130 10220
L6160 10180
L6160 10080
L6130 10030
L6110 10010
L6060 9990
" />
<path d="M6440 9990
L6400 9960
L6370 9940
L6350 9890
L6350 9870
L6370 9820
L6400 9800
L6440 9770
L6540 9770
L6590 9800
L6610 9820
L6630 9870
L6630 9890
L6610 9940
L6590 9960
L6540 9990
L6440 9990
L6400 10010
L6370 10030
L6350 10080
L6350 10180
L6370 10220
L6400 10250
L6440 10270
L6540 10270
L6590 10250
L6610 10220
L6630 10180
L6630 10080
L6610 10030
L6590 10010
L6540 9990
" />
<path d="M6820 9820
L6850 9800
L6900 9770
L7020 9770
L7060 9800
L7090 9820
L7110 9870
L7110 9910
L7090 9990
L6800 10270
L7110 10270
" />
<path d="M7560 9770
L7320 9770
L7300 10010
L7320 9990
L7370 9960
L7490 9960
L7540 9990
L7560 10010
L7590 10060
L7590 10180
L7560 10220
L7540 10250
L7490 10270
L7370 10270
L7320 10250
L7300 10220
" />
</g> 
</svg>
